<?xml version="1.0" encoding="UTF-8"?>
<svg width="122px" height="41px" viewBox="0 0 122 41" version="1.1" xmlns="http://www.w3.org/2000/svg" xmlns:xlink="http://www.w3.org/1999/xlink">
    <title>Group 62</title>
    <defs>
        <polygon id="path-1" points="0 40.5760791 121.752188 40.5760791 121.752188 0.000381395349 0 0.000381395349"></polygon>
    </defs>
    <g id="Page-1" stroke="none" stroke-width="1" fill="none" fill-rule="evenodd">
        <g id="Homepage" transform="translate(-135.000000, -12.000000)">
            <g id="Group-62" transform="translate(135.000000, 12.000000)">
                <path d="M49.4876797,25.9575767 L44.4761484,17.3161116 L40.7437109,17.3161116 L40.7437109,25.9575767 L35.8389297,25.9575767 L35.8389297,1.06676279 L45.7914609,1.06676279 C48.1008828,1.06676279 50.0566953,1.88485581 51.6550859,3.4848093 C53.2553828,5.08476279 54.0731641,7.04036744 54.0731641,9.31634419 C54.0731641,12.4094605 52.1535703,15.2546698 49.2732266,16.5704837 L54.7841953,25.9575767 L49.4876797,25.9575767 Z M40.7437109,5.65399535 L40.7437109,13.0139721 L45.7914609,13.0139721 C47.6395703,13.0139721 49.1674297,11.3434605 49.1674297,9.31634419 C49.1674297,7.28922791 47.6395703,5.65399535 45.7914609,5.65399535 L40.7437109,5.65399535 Z" id="Fill-1" fill="#241F21"></path>
                <path d="M65.0206625,26.4557744 C62.3900375,26.4557744 60.1521,25.5661698 58.3383031,23.7535884 C56.5264125,21.9400535 55.6371469,19.6993558 55.6371469,17.0677279 C55.6371469,14.4370535 56.5264125,12.2325884 58.3383031,10.4190535 C60.1521,8.60456512 62.3900375,7.68063488 65.0206625,7.68063488 C67.6522406,7.68063488 69.8901781,8.60456512 71.703975,10.4190535 C73.5158656,12.2325884 74.44135,14.4370535 74.44135,17.0677279 C74.44135,19.6993558 73.5158656,21.9400535 71.703975,23.7535884 C69.8901781,25.5661698 67.6522406,26.4557744 65.0206625,26.4557744 M65.0206625,21.9753326 C66.4065063,21.9753326 67.5445375,21.5119372 68.4681156,20.5889605 C69.3936,19.6640767 69.8549125,18.4903326 69.8549125,17.0677279 C69.8549125,15.6460767 69.3936,14.4723326 68.4681156,13.5484023 C67.5445375,12.6225651 66.4065063,12.1610767 65.0206625,12.1610767 C63.6357719,12.1610767 62.4977406,12.6225651 61.5741625,13.5484023 C60.6839438,14.4723326 60.2226313,15.6460767 60.2226313,17.0677279 C60.2226313,18.4903326 60.6839438,19.6640767 61.5741625,20.5889605 C62.4977406,21.5119372 63.6357719,21.9753326 65.0206625,21.9753326" id="Fill-3" fill="#241F21"></path>
                <path d="M88.5517938,8.17835581 L93.4575281,8.17835581 L86.9877156,25.9571 C85.1396063,31.078286 82.1534656,33.3180302 77.6051531,33.0682163 L77.6051531,28.8023093 C80.0565906,28.8375884 81.4071688,27.8068674 82.2602156,25.3888209 L74.973575,8.17835581 L79.9870125,8.17835581 L84.6068094,20.1255651 L88.5517938,8.17835581 Z" id="Fill-5" fill="#241F21"></path>
                <path d="M108.422258,8.17835581 L113.007742,8.17835581 L113.007742,25.9571 L108.422258,25.9571 L108.422258,23.8594256 C107.036414,25.6024023 105.11682,26.4557744 102.628211,26.4557744 C100.247305,26.4557744 98.2209609,25.5661698 96.5148672,23.7526349 C94.8440391,21.9391 93.9909922,19.6993558 93.9909922,17.0677279 C93.9909922,14.4361 94.8440391,12.2316349 96.5148672,10.4181 C98.2209609,8.60456512 100.247305,7.68063488 102.628211,7.68063488 C105.11682,7.68063488 107.036414,8.53400698 108.422258,10.2760302 L108.422258,8.17835581 Z M103.481258,22.0821233 C104.90332,22.0821233 106.076617,21.6196814 107.000195,20.6947977 C107.959992,19.7346349 108.422258,18.5256116 108.422258,17.0677279 C108.422258,15.6098442 107.959992,14.4008209 107.000195,13.4768907 C106.076617,12.5167279 104.90332,12.054286 103.481258,12.054286 C102.060148,12.054286 100.886852,12.5167279 99.9623203,13.4768907 C99.0387422,14.4008209 98.5764766,15.6098442 98.5764766,17.0677279 C98.5764766,18.5256116 99.0387422,19.7346349 99.9623203,20.6947977 C100.886852,21.6196814 102.060148,22.0821233 103.481258,22.0821233 L103.481258,22.0821233 Z" id="Fill-7" fill="#241F21"></path>
                <mask id="mask-2" fill="white">
                    <use xlink:href="#path-1"></use>
                </mask>
                <g id="Clip-10"></g>
                <polygon id="Fill-9" fill="#241F21" mask="url(#mask-2)" points="117.166703 25.9581488 121.752188 25.9581488 121.752188 0.000381395349 117.166703 0.000381395349"></polygon>
                <path d="M7.7531,34.9375302 C6.47305313,34.9337163 5.19395938,34.9337163 3.92058438,34.9413442 C3.90819375,24.825786 3.93106875,14.7092744 3.90819375,4.59371628 C8.92067813,4.60515814 13.9283969,4.56892558 18.9408813,4.6080186 C16.4427406,7.0356 13.9932094,9.50799535 11.5379594,11.9756233 C11.5703656,20.938414 11.5379594,29.8992977 11.5532094,38.8630419 C12.9133188,38.855414 14.272475,38.8544605 15.6316313,38.8506465 L20.2190219,34.2624605 C22.3978656,31.9712279 24.7091938,29.8020419 26.9051938,27.5232047 C26.868975,18.5794837 26.8928031,9.63194884 26.8928031,0.682506977 C17.932475,0.703483721 8.97119375,0.682506977 0.01181875,0.695855814 C0.00419375,13.4058558 0.024209375,26.1206233 -0.000571875,38.8353907 C2.59383438,38.8315767 5.183475,38.8792512 7.775975,38.8106 C7.7531,37.5205302 7.7569125,36.2285535 7.7531,34.9375302 M22.9811781,6.0430186 C23.0088188,12.6745302 22.9916625,19.3060419 22.98785,25.9413674 C20.4744594,28.4480884 17.9286625,30.9281116 15.4667406,33.4872744 C15.4095531,26.8548093 15.4419594,20.2166233 15.4495844,13.5841581 C17.9686938,11.0774372 20.4982875,8.58120465 22.9811781,6.0430186" id="Fill-11" fill="#241F21" mask="url(#mask-2)"></path>
                <polygon id="Fill-12" fill="#000000" mask="url(#mask-2)" points="40.0839578 29.0387744 40.0839578 33.3046814 39.2490203 33.3046814 39.2490203 30.5376581 38.0499891 32.5171 37.9537234 32.5171 36.7527859 30.5433791 36.7527859 33.3046814 35.9111766 33.3046814 35.9111766 29.0387744 36.7766141 29.0387744 38.0004266 31.0554023 39.2194734 29.0387744"></polygon>
                <path d="M42.8446844,30.2576186 L43.6310125,30.2576186 L43.6310125,33.304014 L42.8446844,33.304014 L42.8446844,32.9626651 C42.6559656,33.2487116 42.3509656,33.3888744 41.9373094,33.3888744 C41.6027625,33.3888744 41.3292156,33.2792233 41.1099969,33.0551535 C40.8955438,32.8291767 40.7868875,32.5240605 40.7868875,32.1274093 L40.7868875,30.2576186 L41.5722625,30.2576186 L41.5722625,32.0301535 C41.5722625,32.4392 41.8095906,32.6585023 42.1755906,32.6585023 C42.5844813,32.6585023 42.8446844,32.4086884 42.8446844,31.9033395 L42.8446844,30.2576186 Z" id="Fill-13" fill="#000000" mask="url(#mask-2)"></path>
                <path d="M46.0884547,31.0137349 L45.4002984,31.0137349 L45.4002984,32.2809209 C45.4002984,32.6098744 45.6366734,32.6155953 46.0884547,32.5908047 L46.0884547,33.3030605 C45.0114234,33.425107 44.6158766,33.1152233 44.6158766,32.2809209 L44.6158766,31.0137349 L44.0849859,31.0137349 L44.0849859,30.2576186 L44.6158766,30.2576186 L44.6158766,29.6426186 L45.4002984,29.4052 L45.4002984,30.2576186 L46.0884547,30.2576186 L46.0884547,31.0137349 Z" id="Fill-14" fill="#000000" mask="url(#mask-2)"></path>
                <path d="M48.1324313,29.7101256 C47.6997125,29.679614 47.4871656,29.8493349 47.4871656,30.2278698 L47.4871656,30.2574279 L48.1324313,30.2574279 L48.1324313,31.0125907 L47.4871656,31.0125907 L47.4871656,33.3047767 L46.7017906,33.3047767 L46.7017906,31.0125907 L46.2633531,31.0125907 L46.2633531,30.2574279 L46.7017906,30.2574279 L46.7017906,30.2278698 C46.7017906,29.3687767 47.1831188,28.898707 48.1324313,28.9530558 L48.1324313,29.7101256 Z" id="Fill-15" fill="#000000" mask="url(#mask-2)"></path>
                <path d="M50.6892844,30.2576186 L51.4756125,30.2576186 L51.4756125,33.304014 L50.6892844,33.304014 L50.6892844,32.9445488 C50.4529094,33.2429907 50.1240813,33.3888744 49.6970813,33.3888744 C49.2891438,33.3888744 48.9422063,33.2363163 48.6495969,32.9264326 C48.3636594,32.6155953 48.2178313,32.2313395 48.2178313,31.781293 C48.2178313,31.330293 48.3636594,30.9527116 48.6495969,30.6418744 C48.9422063,30.3310372 49.2891438,30.1727581 49.6970813,30.1727581 C50.1240813,30.1727581 50.4529094,30.3186419 50.6892844,30.6170837 L50.6892844,30.2576186 Z M49.8429094,32.6394326 C50.0869094,32.6394326 50.2880188,32.5612465 50.4452844,32.402014 C50.610175,32.238014 50.6892844,32.0301535 50.6892844,31.781293 C50.6892844,31.5305256 50.610175,31.3236186 50.4452844,31.1653395 C50.2880188,31.0013395 50.0869094,30.9222 49.8429094,30.9222 C49.5998625,30.9222 49.3978,31.0013395 49.2395813,31.1653395 C49.0823156,31.3236186 49.0013,31.5305256 49.0013,31.781293 C49.0013,32.0301535 49.0823156,32.238014 49.2395813,32.402014 C49.3978,32.5612465 49.5998625,32.6394326 49.8429094,32.6394326 L49.8429094,32.6394326 Z" id="Fill-16" fill="#000000" mask="url(#mask-2)"></path>
                <polygon id="Fill-17" fill="#000000" mask="url(#mask-2)" points="54.9914047 33.3043 54.0783109 33.3043 52.9698266 31.9207884 52.9698266 33.3043 52.1854047 33.3043 52.1854047 29.038393 52.9698266 29.038393 52.9698266 31.5985093 54.0182641 30.2579047 54.9561391 30.2579047 53.7313734 31.7634628"></polygon>
                <path d="M58.6308172,29.0387744 C59.2141297,29.0387744 59.7021297,29.2475884 60.0910047,29.6547279 C60.4865516,30.0628209 60.6819422,30.5681698 60.6819422,31.1707744 C60.6819422,31.7743326 60.4865516,32.2796814 60.0910047,32.6877744 C59.7021297,33.0977744 59.2141297,33.3046814 58.6308172,33.3046814 L56.9371141,33.3046814 L56.9371141,29.0387744 L58.6308172,29.0387744 Z M58.6308172,32.5008907 C59.0025359,32.5008907 59.2989578,32.3778907 59.5315203,32.1337977 C59.7621766,31.8839837 59.8794109,31.5674256 59.8794109,31.1707744 C59.8794109,30.7750767 59.7621766,30.4585186 59.5315203,30.2144256 C59.2989578,29.9665186 59.0025359,29.8444721 58.6308172,29.8444721 L57.7768172,29.8444721 L57.7768172,32.5008907 L58.6308172,32.5008907 Z" id="Fill-18" fill="#000000" mask="url(#mask-2)"></path>
                <path d="M62.6890328,33.3890651 C62.2372516,33.3890651 61.8540953,33.236507 61.5443297,32.9256698 C61.2336109,32.6148326 61.0811109,32.2315302 61.0811109,31.7805302 C61.0811109,31.3304837 61.2336109,30.9529023 61.5443297,30.6420651 C61.8540953,30.3312279 62.2372516,30.1729488 62.6890328,30.1729488 C63.1398609,30.1729488 63.5239703,30.3312279 63.8337359,30.6420651 C64.1435016,30.9529023 64.3026734,31.3304837 64.3026734,31.7805302 C64.3026734,32.2315302 64.1435016,32.6148326 63.8337359,32.9256698 C63.5239703,33.236507 63.1398609,33.3890651 62.6890328,33.3890651 M62.6890328,32.621507 C62.9273141,32.621507 63.1217516,32.5423674 63.2799703,32.3840884 C63.4381891,32.2258093 63.5182516,32.0246233 63.5182516,31.7805302 C63.5182516,31.5373907 63.4381891,31.3362047 63.2799703,31.1779256 C63.1217516,31.0196465 62.9273141,30.940507 62.6890328,30.940507 C62.4526578,30.940507 62.2563141,31.0196465 62.0980953,31.1779256 C61.9465484,31.3362047 61.8674391,31.5373907 61.8674391,31.7805302 C61.8674391,32.0246233 61.9465484,32.2258093 62.0980953,32.3840884 C62.2563141,32.5423674 62.4526578,32.621507 62.6890328,32.621507" id="Fill-19" fill="#000000" mask="url(#mask-2)"></path>
                <polygon id="Fill-20" fill="#000000" mask="url(#mask-2)" points="64.8553906 33.3047767 65.6407656 33.3047767 65.6407656 28.857707 64.8553906 28.857707"></polygon>
                <path d="M68.6711313,30.2576186 L69.4565063,30.2576186 L69.4565063,33.304014 L68.6711313,33.304014 L68.6711313,32.9445488 C68.4347563,33.2429907 68.104975,33.3888744 67.6789281,33.3888744 C67.2700375,33.3888744 66.9240531,33.2363163 66.6304906,32.9264326 C66.3455063,32.6155953 66.198725,32.2313395 66.198725,31.781293 C66.198725,31.330293 66.3455063,30.9527116 66.6304906,30.6418744 C66.9240531,30.3310372 67.2700375,30.1727581 67.6789281,30.1727581 C68.104975,30.1727581 68.4347563,30.3186419 68.6711313,30.6170837 L68.6711313,30.2576186 Z M67.8238031,32.6394326 C68.0678031,32.6394326 68.2689125,32.5612465 68.4261781,32.402014 C68.5920219,32.238014 68.6711313,32.0301535 68.6711313,31.781293 C68.6711313,31.5305256 68.5920219,31.3236186 68.4261781,31.1653395 C68.2689125,31.0013395 68.0678031,30.9222 67.8238031,30.9222 C67.5807563,30.9222 67.3796469,31.0013395 67.2214281,31.1653395 C67.0632094,31.3236186 66.9831469,31.5305256 66.9831469,31.781293 C66.9831469,32.0301535 67.0632094,32.238014 67.2214281,32.402014 C67.3796469,32.5612465 67.5807563,32.6394326 67.8238031,32.6394326 L67.8238031,32.6394326 Z" id="Fill-21" fill="#000000" mask="url(#mask-2)"></path>
                <path d="M72.9872625,30.6421605 C73.2789188,30.9520442 73.4257,31.3305791 73.4257,31.7806256 C73.4257,32.2316256 73.2789188,32.6149279 72.9872625,32.9267186 C72.7003719,33.2366023 72.3467625,33.3891605 71.938825,33.3891605 C71.5127781,33.3891605 71.18395,33.2432767 70.9523406,32.9448349 L70.9523406,33.3043 L70.1679188,33.3043 L70.1679188,29.038393 L70.9523406,29.038393 L70.9523406,30.6173698 C71.18395,30.3189279 71.5127781,30.1730442 71.938825,30.1730442 C72.3467625,30.1730442 72.7003719,30.3313233 72.9872625,30.6421605 M71.7929969,32.6397186 C72.03795,32.6397186 72.2381063,32.5615326 72.396325,32.4023 C72.5602625,32.2383 72.640325,32.031393 72.640325,31.7806256 C72.640325,31.5308116 72.5602625,31.3239047 72.396325,31.1656256 C72.2381063,31.0016256 72.03795,30.922486 71.7929969,30.922486 C71.5489969,30.922486 71.3478875,31.0016256 71.1896688,31.1656256 C71.03145,31.3239047 70.9523406,31.5308116 70.9523406,31.7806256 C70.9523406,32.031393 71.03145,32.2383 71.1896688,32.4023 C71.3478875,32.5615326 71.5489969,32.6397186 71.7929969,32.6397186" id="Fill-22" fill="#000000" mask="url(#mask-2)"></path>
                <polygon id="Fill-23" fill="#000000" mask="url(#mask-2)" points="73.9767969 33.3047767 74.7621719 33.3047767 74.7621719 30.2583814 73.9767969 30.2583814"></polygon>
                <polygon id="Fill-24" fill="#000000" mask="url(#mask-2)" points="39.2433969 39.1928535 38.2740688 39.1928535 36.7528813 37.1943419 36.7528813 39.1928535 35.912225 39.1928535 35.912225 34.9269465 36.7528813 34.9269465 36.7528813 36.8110395 38.214975 34.9269465 39.18335 34.9269465 37.604975 36.9998302"></polygon>
                <path d="M41.6578531,36.1461721 L42.4441813,36.1461721 L42.4441813,39.1925674 L41.6578531,39.1925674 L41.6578531,38.8331023 C41.4224313,39.1315442 41.0916969,39.2774279 40.66565,39.2774279 C40.2577125,39.2774279 39.910775,39.1248698 39.6181656,38.8159395 C39.3331813,38.5051023 39.1864,38.119893 39.1864,37.6708 C39.1864,37.2188465 39.3331813,36.8412651 39.6181656,36.5304279 C39.910775,36.2195907 40.2577125,36.0613116 40.66565,36.0613116 C41.0916969,36.0613116 41.4224313,36.2071953 41.6578531,36.5056372 L41.6578531,36.1461721 Z M40.8114781,38.527986 C41.0554781,38.527986 41.2565875,38.4498 41.4138531,38.2905674 C41.5787438,38.1265674 41.6578531,37.918707 41.6578531,37.6708 C41.6578531,37.4190791 41.5787438,37.2121721 41.4138531,37.053893 C41.2565875,36.889893 41.0554781,36.8107535 40.8114781,36.8107535 C40.5674781,36.8107535 40.3673219,36.889893 40.2091031,37.053893 C40.0508844,37.2121721 39.9708219,37.4190791 39.9708219,37.6708 C39.9708219,37.918707 40.0508844,38.1265674 40.2091031,38.2905674 C40.3673219,38.4498 40.5674781,38.527986 40.8114781,38.527986 L40.8114781,38.527986 Z" id="Fill-25" fill="#000000" mask="url(#mask-2)"></path>
                <path d="M45.9730313,36.530714 C46.2656406,36.8415512 46.4114688,37.2191326 46.4114688,37.6701326 C46.4114688,38.1201791 46.2656406,38.5044349 45.9730313,38.8152721 C45.6870938,39.1251558 45.3334844,39.277714 44.9255469,39.277714 C44.4995,39.277714 44.1706719,39.1318302 43.9390625,38.8333884 L43.9390625,40.4114116 L43.1536875,40.4114116 L43.1536875,36.1464581 L43.9390625,36.1464581 L43.9390625,36.5059233 C44.1706719,36.2074814 44.4995,36.0615977 44.9255469,36.0615977 C45.3334844,36.0615977 45.6870938,36.2198767 45.9730313,36.530714 M44.7797188,38.5282721 C45.0237188,38.5282721 45.223875,38.450086 45.3820938,38.2908535 C45.5460313,38.1268535 45.6260938,37.9199465 45.6260938,37.6701326 C45.6260938,37.4193651 45.5460313,37.2124581 45.3820938,37.0541791 C45.223875,36.8901791 45.0237188,36.8110395 44.7797188,36.8110395 C44.5357188,36.8110395 44.3346094,36.8901791 44.1763906,37.0541791 C44.0181719,37.2124581 43.9390625,37.4193651 43.9390625,37.6701326 C43.9390625,37.9199465 44.0181719,38.1268535 44.1763906,38.2908535 C44.3346094,38.450086 44.5357188,38.5282721 44.7797188,38.5282721" id="Fill-26" fill="#000000" mask="url(#mask-2)"></path>
                <path d="M49.277325,36.1461721 L50.0636531,36.1461721 L50.0636531,39.1925674 L49.277325,39.1925674 L49.277325,38.8331023 C49.04095,39.1315442 48.7121219,39.2774279 48.2851219,39.2774279 C47.8771844,39.2774279 47.5302469,39.1248698 47.2376375,38.8159395 C46.9526531,38.5051023 46.8058719,38.119893 46.8058719,37.6708 C46.8058719,37.2188465 46.9526531,36.8412651 47.2376375,36.5304279 C47.5302469,36.2195907 47.8771844,36.0613116 48.2851219,36.0613116 C48.7121219,36.0613116 49.04095,36.2071953 49.277325,36.5056372 L49.277325,36.1461721 Z M48.43095,38.527986 C48.67495,38.527986 48.8760594,38.4498 49.033325,38.2905674 C49.1982156,38.1265674 49.277325,37.918707 49.277325,37.6708 C49.277325,37.4190791 49.1982156,37.2121721 49.033325,37.053893 C48.8760594,36.889893 48.67495,36.8107535 48.43095,36.8107535 C48.1879031,36.8107535 47.9867937,36.889893 47.828575,37.053893 C47.6703562,37.2121721 47.5902937,37.4190791 47.5902937,37.6708 C47.5902937,37.918707 47.6703562,38.1265674 47.828575,38.2905674 C47.9867937,38.4498 48.1879031,38.527986 48.43095,38.527986 L48.43095,38.527986 Z" id="Fill-27" fill="#000000" mask="url(#mask-2)"></path>
                <polygon id="Fill-28" fill="#000000" mask="url(#mask-2)" points="53.57935 39.1928535 52.6662563 39.1928535 51.5577719 37.8093419 51.5577719 39.1928535 50.7743031 39.1928535 50.7743031 34.9269465 51.5577719 34.9269465 51.5577719 37.4870628 52.6062094 36.1464581 53.5440844 36.1464581 52.3202719 37.6520163"></polygon>
                <polygon id="Fill-29" fill="#000000" mask="url(#mask-2)" points="53.9687969 39.191614 54.7541719 39.191614 54.7541719 34.7445442 53.9687969 34.7445442"></polygon>
                <path d="M57.783775,36.1461721 L58.5701031,36.1461721 L58.5701031,39.1925674 L57.783775,39.1925674 L57.783775,38.8331023 C57.5464469,39.1315442 57.2176188,39.2774279 56.7915719,39.2774279 C56.3836344,39.2774279 56.0366969,39.1248698 55.7440875,38.8159395 C55.4591031,38.5051023 55.3123219,38.119893 55.3123219,37.6708 C55.3123219,37.2188465 55.4591031,36.8412651 55.7440875,36.5304279 C56.0366969,36.2195907 56.3836344,36.0613116 56.7915719,36.0613116 C57.2176188,36.0613116 57.5464469,36.2071953 57.783775,36.5056372 L57.783775,36.1461721 Z M56.9374,38.527986 C57.1814,38.527986 57.3825094,38.4498 57.539775,38.2905674 C57.7046656,38.1265674 57.783775,37.918707 57.783775,37.6708 C57.783775,37.4190791 57.7046656,37.2121721 57.539775,37.053893 C57.3825094,36.889893 57.1814,36.8107535 56.9374,36.8107535 C56.6934,36.8107535 56.4932438,36.889893 56.335025,37.053893 C56.1768063,37.2121721 56.0967438,37.4190791 56.0967438,37.6708 C56.0967438,37.918707 56.1768063,38.1265674 56.335025,38.2905674 C56.4932438,38.4498 56.6934,38.527986 56.9374,38.527986 L56.9374,38.527986 Z" id="Fill-30" fill="#000000" mask="url(#mask-2)"></path>
                <path d="M60.0660328,36.6704 C60.2118609,36.2804233 60.5778609,36.0859116 60.9924703,36.0859116 L60.9924703,36.9631209 C60.7541891,36.9326093 60.5349703,36.9812372 60.3452984,37.1090047 C60.1575328,37.2367721 60.0660328,37.4446326 60.0660328,37.7364 L60.0660328,39.1933302 L59.2816109,39.1933302 L59.2816109,36.1469349 L60.0660328,36.1469349 L60.0660328,36.6704 Z" id="Fill-31" fill="#000000" mask="url(#mask-2)"></path>
                <polygon id="Fill-32" fill="#000000" mask="url(#mask-2)" points="61.4470156 39.191614 62.2314375 39.191614 62.2314375 36.1461721 61.4470156 36.1461721"></polygon>
                <path d="M15.449775,13.5930256 C17.9688844,11.0853512 20.497525,8.59102558 22.9804156,6.05188605 C23.0090094,12.6833977 22.9918531,19.3149093 22.9880406,25.9502349 C20.4736969,28.4569558 17.9288531,30.9360256 15.4669313,33.4942349 C15.4097438,26.8636767 15.44215,20.2235837 15.449775,13.5930256" id="Fill-33" fill="#F9B234" mask="url(#mask-2)"></path>
                <path d="M49.4876797,26.1224349 L44.4761484,17.4809698 L40.7437109,17.4809698 L40.7437109,26.1224349 L35.8389297,26.1224349 L35.8389297,1.23162093 L45.7914609,1.23162093 C48.1008828,1.23162093 50.0566953,2.04971395 51.6550859,3.64966744 C53.2553828,5.24866744 54.0731641,7.20522558 54.0731641,9.48120233 C54.0731641,12.5743186 52.1535703,15.4185744 49.2732266,16.7353419 L54.7841953,26.1224349 L49.4876797,26.1224349 Z M40.7437109,5.81885349 L40.7437109,13.1788302 L45.7914609,13.1788302 C47.6395703,13.1788302 49.1674297,11.5083186 49.1674297,9.48120233 C49.1674297,7.45408605 47.6395703,5.81885349 45.7914609,5.81885349 L40.7437109,5.81885349 Z" id="Fill-34" fill="#241F21" mask="url(#mask-2)"></path>
                <path d="M65.0206625,26.6196791 C62.3900375,26.6196791 60.1521,25.7310279 58.3383031,23.917493 C56.5264125,22.1049116 55.6371469,19.8632605 55.6371469,17.232586 C55.6371469,14.6019116 56.5264125,12.396493 58.3383031,10.5839116 C60.1521,8.76942326 62.3900375,7.84549302 65.0206625,7.84549302 C67.6522406,7.84549302 69.8901781,8.76942326 71.703975,10.5839116 C73.5158656,12.396493 74.44135,14.6019116 74.44135,17.232586 C74.44135,19.8632605 73.5158656,22.1049116 71.703975,23.917493 C69.8901781,25.7310279 67.6522406,26.6196791 65.0206625,26.6196791 M65.0206625,22.1401907 C66.4065063,22.1401907 67.5445375,21.6767953 68.4681156,20.7538186 C69.3936,19.8279814 69.8549125,18.6542372 69.8549125,17.232586 C69.8549125,15.8099814 69.3936,14.6371907 68.4681156,13.7132605 C67.5445375,12.7874233 66.4065063,12.3259349 65.0206625,12.3259349 C63.6357719,12.3259349 62.4977406,12.7874233 61.5741625,13.7132605 C60.6839438,14.6371907 60.2226313,15.8099814 60.2226313,17.232586 C60.2226313,18.6542372 60.6839438,19.8279814 61.5741625,20.7538186 C62.4977406,21.6767953 63.6357719,22.1401907 65.0206625,22.1401907" id="Fill-35" fill="#241F21" mask="url(#mask-2)"></path>
                <path d="M88.5517938,8.34321395 L93.4575281,8.34321395 L86.9877156,26.1219581 C85.1396063,31.2431442 82.1534656,33.4828884 77.6051531,33.2330744 L77.6051531,28.9671674 C80.0565906,29.0024465 81.4071688,27.9717256 82.2602156,25.5536791 L74.973575,8.34321395 L79.9870125,8.34321395 L84.6068094,20.2904233 L88.5517938,8.34321395 Z" id="Fill-36" fill="#241F21" mask="url(#mask-2)"></path>
                <path d="M108.422258,8.34321395 L113.007742,8.34321395 L113.007742,26.1219581 L108.422258,26.1219581 L108.422258,24.0242837 C107.036414,25.766307 105.11682,26.6206326 102.628211,26.6206326 C100.247305,26.6206326 98.2209609,25.7310279 96.5148672,23.917493 C94.8440391,22.1039581 93.9909922,19.864214 93.9909922,17.232586 C93.9909922,14.6009581 94.8440391,12.396493 96.5148672,10.5829581 C98.2209609,8.76942326 100.247305,7.84549302 102.628211,7.84549302 C105.11682,7.84549302 107.036414,8.69886512 108.422258,10.4408884 L108.422258,8.34321395 Z M103.481258,22.2469814 C104.90332,22.2469814 106.076617,21.7845395 107.000195,20.8596558 C107.959992,19.899493 108.422258,18.6904698 108.422258,17.232586 C108.422258,15.7747023 107.959992,14.5656791 107.000195,13.6417488 C106.076617,12.681586 104.90332,12.2181907 103.481258,12.2181907 C102.060148,12.2181907 100.886852,12.681586 99.9623203,13.6417488 C99.0387422,14.5656791 98.5764766,15.7747023 98.5764766,17.232586 C98.5764766,18.6904698 99.0387422,19.899493 99.9623203,20.8596558 C100.886852,21.7845395 102.060148,22.2469814 103.481258,22.2469814 L103.481258,22.2469814 Z" id="Fill-37" fill="#241F21" mask="url(#mask-2)"></path>
                <polygon id="Fill-38" fill="#241F21" mask="url(#mask-2)" points="117.166703 26.1231023 121.752188 26.1231023 121.752188 0.165334884 117.166703 0.165334884"></polygon>
                <path d="M7.7531,35.102293 C6.47305313,35.0975256 5.19395938,35.0975256 3.92058438,35.106107 C3.90819375,24.9905488 3.93106875,14.8730837 3.90819375,4.75847907 C8.92067813,4.76992093 13.9283969,4.73368837 18.9408813,4.7727814 C16.4427406,7.20036279 13.9932094,9.67180465 11.5379594,12.140386 C11.5703656,21.1031767 11.5379594,30.0640605 11.5532094,39.0268512 C12.9133188,39.0201767 14.272475,39.0192233 15.6316313,39.0154093 L20.2190219,34.4272233 C22.3978656,32.1359907 24.7091938,29.9668047 26.9051938,27.6879674 C26.868975,18.7442465 26.8928031,9.79671163 26.8928031,0.847269767 C17.932475,0.868246512 8.97119375,0.847269767 0.01181875,0.860618605 C0.00419375,13.5706186 0.024209375,26.285386 -0.000571875,39.0001535 C2.59383438,38.9963395 5.183475,39.044014 7.775975,38.9753628 C7.7531,37.685293 7.7569125,36.3933163 7.7531,35.102293 M22.9811781,6.2077814 C23.0088188,12.839293 22.9916625,19.4708047 22.98785,26.1061302 C20.4744594,28.6128512 17.9286625,31.0928744 15.4667406,33.6520372 C15.4095531,27.0195721 15.4419594,20.381386 15.4495844,13.7489209 C17.9686938,11.2422 20.4982875,8.74596744 22.9811781,6.2077814" id="Fill-39" fill="#241F21" mask="url(#mask-2)"></path>
                <polygon id="Fill-40" fill="#000000" mask="url(#mask-2)" points="40.0839578 29.2035372 40.0839578 33.4694442 39.2490203 33.4694442 39.2490203 30.7024209 38.0499891 32.6818628 37.9537234 32.6818628 36.7527859 30.7081419 36.7527859 33.4694442 35.9111766 33.4694442 35.9111766 29.2035372 36.7766141 29.2035372 38.0004266 31.2201651 39.2194734 29.2035372"></polygon>
                <path d="M42.8446844,30.4223814 L43.6310125,30.4223814 L43.6310125,33.4687767 L42.8446844,33.4687767 L42.8446844,33.1274279 C42.6559656,33.4134744 42.3509656,33.5536372 41.9373094,33.5536372 C41.6027625,33.5536372 41.3292156,33.443986 41.1099969,33.2189628 C40.8955438,32.9939395 40.7868875,32.6888233 40.7868875,32.2921721 L40.7868875,30.4223814 L41.5722625,30.4223814 L41.5722625,32.1949163 C41.5722625,32.6039628 41.8095906,32.8223116 42.1755906,32.8223116 C42.5844813,32.8223116 42.8446844,32.5734512 42.8446844,32.0671488 L42.8446844,30.4223814 Z" id="Fill-41" fill="#000000" mask="url(#mask-2)"></path>
                <path d="M46.0884547,31.1784977 L45.4002984,31.1784977 L45.4002984,32.4447302 C45.4002984,32.7746372 45.6366734,32.7803581 46.0884547,32.7555674 L46.0884547,33.4678233 C45.0114234,33.5898698 44.6158766,33.2790326 44.6158766,32.4447302 L44.6158766,31.1784977 L44.0849859,31.1784977 L44.0849859,30.4223814 L44.6158766,30.4223814 L44.6158766,29.8073814 L45.4002984,29.5699628 L45.4002984,30.4223814 L46.0884547,30.4223814 L46.0884547,31.1784977 Z" id="Fill-42" fill="#000000" mask="url(#mask-2)"></path>
                <path d="M48.1324313,29.8739349 C47.6997125,29.8443767 47.4871656,30.0140977 47.4871656,30.3916791 L47.4871656,30.4221907 L48.1324313,30.4221907 L48.1324313,31.1773535 L47.4871656,31.1773535 L47.4871656,33.4695395 L46.7017906,33.4695395 L46.7017906,31.1773535 L46.2633531,31.1773535 L46.2633531,30.4221907 L46.7017906,30.4221907 L46.7017906,30.3916791 C46.7017906,29.5335395 47.1831188,29.0634698 48.1324313,29.1187721 L48.1324313,29.8739349 Z" id="Fill-43" fill="#000000" mask="url(#mask-2)"></path>
                <path d="M50.6892844,30.4223814 L51.4756125,30.4223814 L51.4756125,33.4687767 L50.6892844,33.4687767 L50.6892844,33.1093116 C50.4529094,33.4077535 50.1240813,33.5536372 49.6970813,33.5536372 C49.2891438,33.5536372 48.9422063,33.4010791 48.6495969,33.0911953 C48.3636594,32.7803581 48.2178313,32.3961023 48.2178313,31.9460558 C48.2178313,31.4950558 48.3636594,31.1174744 48.6495969,30.8066372 C48.9422063,30.4958 49.2891438,30.3375209 49.6970813,30.3375209 C50.1240813,30.3375209 50.4529094,30.4834047 50.6892844,30.7818465 L50.6892844,30.4223814 Z M49.8429094,32.8041953 C50.0869094,32.8041953 50.2880188,32.7260093 50.4452844,32.5667767 C50.610175,32.4027767 50.6892844,32.1949163 50.6892844,31.9460558 C50.6892844,31.6952884 50.610175,31.4883814 50.4452844,31.3301023 C50.2880188,31.1661023 50.0869094,31.0869628 49.8429094,31.0869628 C49.5998625,31.0869628 49.3978,31.1661023 49.2395813,31.3301023 C49.0823156,31.4883814 49.0013,31.6952884 49.0013,31.9460558 C49.0013,32.1949163 49.0823156,32.4027767 49.2395813,32.5667767 C49.3978,32.7260093 49.5998625,32.8041953 49.8429094,32.8041953 L49.8429094,32.8041953 Z" id="Fill-44" fill="#000000" mask="url(#mask-2)"></path>
                <polygon id="Fill-45" fill="#000000" mask="url(#mask-2)" points="54.9914047 33.4682047 54.0783109 33.4682047 52.9698266 32.0856465 52.9698266 33.4682047 52.1854047 33.4682047 52.1854047 29.2032512 52.9698266 29.2032512 52.9698266 31.762414 54.0182641 30.4227628 54.9561391 30.4227628 53.7313734 31.9283209"></polygon>
                <path d="M58.6308172,29.2035372 C59.2141297,29.2035372 59.7021297,29.4123512 60.0910047,29.8194907 C60.4865516,30.2275837 60.6819422,30.7329326 60.6819422,31.3355372 C60.6819422,31.9390953 60.4865516,32.4444442 60.0910047,32.8525372 C59.7021297,33.2615837 59.2141297,33.4694442 58.6308172,33.4694442 L56.9371141,33.4694442 L56.9371141,29.2035372 L58.6308172,29.2035372 Z M58.6308172,32.6647 C59.0025359,32.6647 59.2989578,32.5426535 59.5315203,32.2985605 C59.7621766,32.0487465 59.8794109,31.7321884 59.8794109,31.3355372 C59.8794109,30.9398395 59.7621766,30.6232814 59.5315203,30.3791884 C59.2989578,30.1312814 59.0025359,30.0092349 58.6308172,30.0092349 L57.7768172,30.0092349 L57.7768172,32.6647 L58.6308172,32.6647 Z" id="Fill-46" fill="#000000" mask="url(#mask-2)"></path>
                <path d="M62.6890328,33.5538279 C62.2372516,33.5538279 61.8540953,33.4012698 61.5443297,33.0904326 C61.2336109,32.7795953 61.0811109,32.396293 61.0811109,31.945293 C61.0811109,31.4952465 61.2336109,31.1176651 61.5443297,30.8068279 C61.8540953,30.4959907 62.2372516,30.3377116 62.6890328,30.3377116 C63.1398609,30.3377116 63.5239703,30.4959907 63.8337359,30.8068279 C64.1435016,31.1176651 64.3026734,31.4952465 64.3026734,31.945293 C64.3026734,32.396293 64.1435016,32.7795953 63.8337359,33.0904326 C63.5239703,33.4012698 63.1398609,33.5538279 62.6890328,33.5538279 M62.6890328,32.7862698 C62.9273141,32.7862698 63.1217516,32.7071302 63.2799703,32.5488512 C63.4381891,32.3905721 63.5182516,32.189386 63.5182516,31.945293 C63.5182516,31.7021535 63.4381891,31.5009674 63.2799703,31.3426884 C63.1217516,31.1844093 62.9273141,31.1052698 62.6890328,31.1052698 C62.4526578,31.1052698 62.2563141,31.1844093 62.0980953,31.3426884 C61.9465484,31.5009674 61.8674391,31.7021535 61.8674391,31.945293 C61.8674391,32.189386 61.9465484,32.3905721 62.0980953,32.5488512 C62.2563141,32.7071302 62.4526578,32.7862698 62.6890328,32.7862698" id="Fill-47" fill="#000000" mask="url(#mask-2)"></path>
                <polygon id="Fill-48" fill="#000000" mask="url(#mask-2)" points="64.8553906 33.4687767 65.6407656 33.4687767 65.6407656 29.0207535 64.8553906 29.0207535"></polygon>
                <path d="M68.6711313,30.4223814 L69.4565063,30.4223814 L69.4565063,33.4687767 L68.6711313,33.4687767 L68.6711313,33.1093116 C68.4347563,33.4077535 68.104975,33.5536372 67.6789281,33.5536372 C67.2700375,33.5536372 66.9240531,33.4010791 66.6304906,33.0911953 C66.3455063,32.7803581 66.198725,32.3961023 66.198725,31.9460558 C66.198725,31.4950558 66.3455063,31.1174744 66.6304906,30.8066372 C66.9240531,30.4958 67.2700375,30.3375209 67.6789281,30.3375209 C68.104975,30.3375209 68.4347563,30.4834047 68.6711313,30.7818465 L68.6711313,30.4223814 Z M67.8238031,32.8041953 C68.0678031,32.8041953 68.2689125,32.7260093 68.4261781,32.5667767 C68.5920219,32.4027767 68.6711313,32.1949163 68.6711313,31.9460558 C68.6711313,31.6952884 68.5920219,31.4883814 68.4261781,31.3301023 C68.2689125,31.1661023 68.0678031,31.0869628 67.8238031,31.0869628 C67.5807563,31.0869628 67.3796469,31.1661023 67.2214281,31.3301023 C67.0632094,31.4883814 66.9831469,31.6952884 66.9831469,31.9460558 C66.9831469,32.1949163 67.0632094,32.4027767 67.2214281,32.5667767 C67.3796469,32.7260093 67.5807563,32.8041953 67.8238031,32.8041953 L67.8238031,32.8041953 Z" id="Fill-49" fill="#000000" mask="url(#mask-2)"></path>
                <path d="M72.9872625,30.8070186 C73.2789188,31.1169023 73.4257,31.4954372 73.4257,31.9454837 C73.4257,32.3964837 73.2789188,32.779786 72.9872625,33.0915767 C72.7003719,33.4014605 72.3467625,33.5540186 71.938825,33.5540186 C71.5127781,33.5540186 71.18395,33.4081349 70.9523406,33.1087395 L70.9523406,33.4691581 L70.1679188,33.4691581 L70.1679188,29.2032512 L70.9523406,29.2032512 L70.9523406,30.7822279 C71.18395,30.4828326 71.5127781,30.3379023 71.938825,30.3379023 C72.3467625,30.3379023 72.7003719,30.4961814 72.9872625,30.8070186 M71.7929969,32.8045767 C72.03795,32.8045767 72.2381063,32.7263907 72.396325,32.5671581 C72.5602625,32.4031581 72.640325,32.1952977 72.640325,31.9454837 C72.640325,31.6956698 72.5602625,31.4887628 72.396325,31.3304837 C72.2381063,31.1664837 72.03795,31.0873442 71.7929969,31.0873442 C71.5489969,31.0873442 71.3478875,31.1664837 71.1896688,31.3304837 C71.03145,31.4887628 70.9523406,31.6956698 70.9523406,31.9454837 C70.9523406,32.1952977 71.03145,32.4031581 71.1896688,32.5671581 C71.3478875,32.7263907 71.5489969,32.8045767 71.7929969,32.8045767" id="Fill-50" fill="#000000" mask="url(#mask-2)"></path>
                <polygon id="Fill-51" fill="#000000" mask="url(#mask-2)" points="73.9767969 33.4687767 74.7621719 33.4687767 74.7621719 30.4233349 73.9767969 30.4233349"></polygon>
                <polygon id="Fill-52" fill="#000000" mask="url(#mask-2)" points="39.2433969 39.3576163 38.2740688 39.3576163 36.7528813 37.3581512 36.7528813 39.3576163 35.912225 39.3576163 35.912225 35.0917093 36.7528813 35.0917093 36.7528813 36.9758023 38.214975 35.0917093 39.18335 35.0917093 37.604975 37.1636395"></polygon>
                <path d="M41.6578531,36.3109349 L42.4441813,36.3109349 L42.4441813,39.3573302 L41.6578531,39.3573302 L41.6578531,38.9978651 C41.4224313,39.296307 41.0916969,39.4421907 40.66565,39.4421907 C40.2577125,39.4421907 39.910775,39.2896326 39.6181656,38.9787953 C39.3331813,38.6698651 39.1864,38.2846558 39.1864,37.8355628 C39.1864,37.3836093 39.3331813,37.0060279 39.6181656,36.6951907 C39.910775,36.3843535 40.2577125,36.2260744 40.66565,36.2260744 C41.0916969,36.2260744 41.4224313,36.3719581 41.6578531,36.6704 L41.6578531,36.3109349 Z M40.8114781,38.6927488 C41.0554781,38.6927488 41.2565875,38.6145628 41.4138531,38.4553302 C41.5787438,38.2913302 41.6578531,38.0834698 41.6578531,37.8355628 C41.6578531,37.5838419 41.5787438,37.3769349 41.4138531,37.2186558 C41.2565875,37.0546558 41.0554781,36.9755163 40.8114781,36.9755163 C40.5674781,36.9755163 40.3673219,37.0546558 40.2091031,37.2186558 C40.0508844,37.3769349 39.9708219,37.5838419 39.9708219,37.8355628 C39.9708219,38.0834698 40.0508844,38.2913302 40.2091031,38.4553302 C40.3673219,38.6145628 40.5674781,38.6927488 40.8114781,38.6927488 L40.8114781,38.6927488 Z" id="Fill-53" fill="#000000" mask="url(#mask-2)"></path>
                <path d="M45.9730313,36.6954767 C46.2656406,37.006314 46.4114688,37.3838953 46.4114688,37.8348953 C46.4114688,38.2849419 46.2656406,38.6691977 45.9730313,38.9800349 C45.6870938,39.2899186 45.3334844,39.4424767 44.9255469,39.4424767 C44.4995,39.4424767 44.1706719,39.296593 43.9390625,38.9981512 L43.9390625,40.5761744 L43.1536875,40.5761744 L43.1536875,36.3112209 L43.9390625,36.3112209 L43.9390625,36.670686 C44.1706719,36.3722442 44.4995,36.2263605 44.9255469,36.2263605 C45.3334844,36.2263605 45.6870938,36.3846395 45.9730313,36.6954767 M44.7797188,38.6930349 C45.0237188,38.6930349 45.223875,38.6148488 45.3820938,38.4556163 C45.5460313,38.2916163 45.6260938,38.0847093 45.6260938,37.8348953 C45.6260938,37.5841279 45.5460313,37.3772209 45.3820938,37.2189419 C45.223875,37.0549419 45.0237188,36.9758023 44.7797188,36.9758023 C44.5357188,36.9758023 44.3346094,37.0549419 44.1763906,37.2189419 C44.0181719,37.3772209 43.9390625,37.5841279 43.9390625,37.8348953 C43.9390625,38.0847093 44.0181719,38.2916163 44.1763906,38.4556163 C44.3346094,38.6148488 44.5357188,38.6930349 44.7797188,38.6930349" id="Fill-54" fill="#000000" mask="url(#mask-2)"></path>
                <path d="M49.277325,36.3109349 L50.0636531,36.3109349 L50.0636531,39.3573302 L49.277325,39.3573302 L49.277325,38.9978651 C49.04095,39.296307 48.7121219,39.4421907 48.2851219,39.4421907 C47.8771844,39.4421907 47.5302469,39.2896326 47.2376375,38.9787953 C46.9526531,38.6698651 46.8058719,38.2846558 46.8058719,37.8355628 C46.8058719,37.3836093 46.9526531,37.0060279 47.2376375,36.6951907 C47.5302469,36.3843535 47.8771844,36.2260744 48.2851219,36.2260744 C48.7121219,36.2260744 49.04095,36.3719581 49.277325,36.6704 L49.277325,36.3109349 Z M48.43095,38.6927488 C48.67495,38.6927488 48.8760594,38.6145628 49.033325,38.4553302 C49.1982156,38.2913302 49.277325,38.0834698 49.277325,37.8355628 C49.277325,37.5838419 49.1982156,37.3769349 49.033325,37.2186558 C48.8760594,37.0546558 48.67495,36.9755163 48.43095,36.9755163 C48.1879031,36.9755163 47.9867937,37.0546558 47.828575,37.2186558 C47.6703562,37.3769349 47.5902937,37.5838419 47.5902937,37.8355628 C47.5902937,38.0834698 47.6703562,38.2913302 47.828575,38.4553302 C47.9867937,38.6145628 48.1879031,38.6927488 48.43095,38.6927488 L48.43095,38.6927488 Z" id="Fill-55" fill="#000000" mask="url(#mask-2)"></path>
                <polygon id="Fill-56" fill="#000000" mask="url(#mask-2)" points="53.57935 39.3576163 52.6662563 39.3576163 51.5577719 37.9741047 51.5577719 39.3576163 50.7743031 39.3576163 50.7743031 35.0917093 51.5577719 35.0917093 51.5577719 37.6518256 52.6062094 36.3112209 53.5440844 36.3112209 52.3202719 37.8167791"></polygon>
                <polygon id="Fill-57" fill="#000000" mask="url(#mask-2)" points="53.9687969 39.3565674 54.7541719 39.3565674 54.7541719 34.9104512 53.9687969 34.9104512"></polygon>
                <path d="M57.783775,36.3109349 L58.5701031,36.3109349 L58.5701031,39.3573302 L57.783775,39.3573302 L57.783775,38.9978651 C57.5464469,39.296307 57.2176188,39.4421907 56.7915719,39.4421907 C56.3836344,39.4421907 56.0366969,39.2896326 55.7440875,38.9787953 C55.4591031,38.6698651 55.3123219,38.2846558 55.3123219,37.8355628 C55.3123219,37.3836093 55.4591031,37.0060279 55.7440875,36.6951907 C56.0366969,36.3843535 56.3836344,36.2260744 56.7915719,36.2260744 C57.2176188,36.2260744 57.5464469,36.3719581 57.783775,36.6704 L57.783775,36.3109349 Z M56.9374,38.6927488 C57.1814,38.6927488 57.3825094,38.6145628 57.539775,38.4553302 C57.7046656,38.2913302 57.783775,38.0834698 57.783775,37.8355628 C57.783775,37.5838419 57.7046656,37.3769349 57.539775,37.2186558 C57.3825094,37.0546558 57.1814,36.9755163 56.9374,36.9755163 C56.6934,36.9755163 56.4932438,37.0546558 56.335025,37.2186558 C56.1768063,37.3769349 56.0967438,37.5838419 56.0967438,37.8355628 C56.0967438,38.0834698 56.1768063,38.2913302 56.335025,38.4553302 C56.4932438,38.6145628 56.6934,38.6927488 56.9374,38.6927488 L56.9374,38.6927488 Z" id="Fill-58" fill="#000000" mask="url(#mask-2)"></path>
                <path d="M60.0660328,36.8351628 C60.2118609,36.445186 60.5778609,36.2506744 60.9924703,36.2506744 L60.9924703,37.1278837 C60.7541891,37.0964186 60.5349703,37.146 60.3452984,37.2737674 C60.1575328,37.4015349 60.0660328,37.6093953 60.0660328,37.9011628 L60.0660328,39.3571395 L59.2816109,39.3571395 L59.2816109,36.3116977 L60.0660328,36.3116977 L60.0660328,36.8351628 Z" id="Fill-59" fill="#000000" mask="url(#mask-2)"></path>
                <polygon id="Fill-60" fill="#000000" mask="url(#mask-2)" points="61.4470156 39.3565674 62.2314375 39.3565674 62.2314375 36.3111256 61.4470156 36.3111256"></polygon>
                <path d="M15.449775,13.7568349 C17.9688844,11.250114 20.497525,8.75578837 22.9804156,6.21664884 C23.0090094,12.8481605 22.9918531,19.4796721 22.9880406,26.1149977 C20.4736969,28.6217186 17.9288531,31.1007884 15.4669313,33.6589977 C15.4097438,27.0284395 15.44215,20.3883465 15.449775,13.7568349" id="Fill-61" fill="#F9B234" mask="url(#mask-2)"></path>
            </g>
        </g>
    </g>
</svg>